<svg xmlns="http://www.w3.org/2000/svg" viewBox="0 0 246.07 283.46"><defs><style>.cls-1{fill:#fff;fill-rule:evenodd;}</style></defs><g id="Layer_2" data-name="Layer 2"><g id="Capa_1" data-name="Capa 1"><path class="cls-1" d="M210,172.61c-6.4-4-13.41-4.38-20.59-3.14a85.29,85.29,0,0,0-15.79,4.7,138.22,138.22,0,0,0-30.45,16.73,6,6,0,0,1-5,.9,8.57,8.57,0,0,1-6.57-9.39,4.94,4.94,0,0,1,6.17-4.32,3.8,3.8,0,0,1,1.54.95c.26.25.25.76.36,1.16a4.19,4.19,0,0,1-1,.23c-1.43,0-2,.31-2.3,1.72a4.66,4.66,0,0,0,0,2.1,3.4,3.4,0,0,0,6.7-.8,6.35,6.35,0,0,0-1.42-4.22c-2.5-3.37-8.38-3.77-10.7.22-.29.5-.53,1-.8,1.58l-2.59-2.83a7.6,7.6,0,0,0,1.19,7.14c.45.65.78,1.38,1.16,2.06l-.25.23-3.08-1a5.25,5.25,0,0,0,1.3,4.07c2.48,3,5.84,4,9.65,4.05a21.36,21.36,0,0,1-2.83,2.2,1.67,1.67,0,0,1-1.25.19c-1.7-.56-3.38-1.2-5.07-1.83A324.72,324.72,0,0,1,90,177.5C83.37,174,77,170.16,71.78,164.72a1.08,1.08,0,0,0-.62-.36c-2.81,0-5.61,0-8.63,0,.29.31.42.47.56.61a64.45,64.45,0,0,0,12.25,9.63c3.83,2.38,7.89,4.4,11.08,7.7,1.56,1.62,3.13,3.23,3.67,5.51.22,1,.3,2,.45,3h.24c.24-2.47.48-5,.72-7.37,6.36,2.9,12.76,6,19.26,8.75s13.07,5.31,19.75,8c-4.13,2.94-8.24,5.83-12.29,8.79a1.72,1.72,0,0,1-2.1.12C103.21,202.31,89.61,197.9,75,196.9a45.62,45.62,0,0,0-14.74.93c-5.43,1.41-10.3,3.81-13.77,8.4-3,4-3.91,8.34-1.65,13,1.85,3.82,5.21,6,9,7.5,5.32,2.12,10.9,2.56,16.56,2.52H74c-1.08,1.33-2.25,2.6-3.21,4a10.4,10.4,0,0,0-2,7.55c.64,4.25,3.2,7.21,6.68,9.4,3.64,2.29,7.74,2.58,11.91,2.32.43,0,.86-.08,1.29-.14s.83-.16,1.44-.28c-1.92-1-3.81-1.68-4.77-3.86,1.24-.16,2.28-.24,3.3-.43,2.25-.42,4.54-.74,6.74-1.38a4,4,0,0,0,3-3.5,9,9,0,0,0-2.07-6.64A4.4,4.4,0,0,0,94.44,235a4.33,4.33,0,0,0-4.38,1.19c-1.87,1.64-3.55,3.5-5.26,5.3a25.64,25.64,0,0,1-7,5.72c-2.67,1.33-4.43.64-5.41-2.15-1.4-4-.46-7.55,1.95-10.79,2.8-3.75,6.85-5.49,11.21-6.68,3.5-.94,7-1.8,10.47-2.94a113.81,113.81,0,0,0,21.2-10,1.62,1.62,0,0,1,1.34-.07,97,97,0,0,1,22.11,17.14,51.31,51.31,0,0,1,10.46,15.42c2.19,5.31,3.1,10.76,1,16.32a24.76,24.76,0,0,1-9.53,12.3,14.51,14.51,0,0,1-11.14,2.39,19.79,19.79,0,0,1-13.86-10.14,12.67,12.67,0,0,1-1.86-8.61,16.47,16.47,0,0,1,6.71-10.38,19.48,19.48,0,0,1,11.78-3.64,8.51,8.51,0,0,1,8.42,5.92c.7,2,.9,4-.46,5.88-.7.93-1.15,1-1.9.13a7.51,7.51,0,0,0-7.11-2.57c-3.23.42-5.45,2.2-5.8,5.43-.65,6.15,5.24,9.73,9,10,5.34.35,9.21-4.14,10.06-7.64a17.29,17.29,0,0,0-1.11-11.51c-1.64-3.64-4.39-6.19-8.38-6.81a32,32,0,0,0-7.77-.09,16.44,16.44,0,0,0-12.35,6.92c-4.66,6.43-5.32,12.58-1,19.53a26.78,26.78,0,0,0,13.72,11.1,64.55,64.55,0,0,0,6.3,1.76h5.22a42.17,42.17,0,0,0,5.13-1.54,23.49,23.49,0,0,0,13.25-26.26,45,45,0,0,0-7.09-16c-5.94-8.72-13.55-15.78-22.06-21.9-2.78-2-5.67-3.83-8.57-5.78l.79-.54c4.4-3,8.81-5.92,13.18-8.93a1.9,1.9,0,0,1,1.85-.33,128.66,128.66,0,0,0,22.9,5.2c4.73.57,9.48,1,14.24,1.22,3.24.14,6.5-.17,9.75-.35a90.62,90.62,0,0,0,16.71-2.66c5.37-1.35,10.32-3.54,14-7.87a15,15,0,0,0,3.57-13.08C217.7,179.27,214.49,175.41,210,172.61ZM105.71,217.8a80.36,80.36,0,0,1-21.06,8.13,74.64,74.64,0,0,1-20.52,1.85,16.41,16.41,0,0,1-9.85-3.42c-4.18-3.45-5-8.8-2.24-13.66s7-7.41,12.22-8.75c4.26-1.1,8.57-.87,12.91-.49a82,82,0,0,1,16.58,3.32,111,111,0,0,1,20,8.31C110.91,214.76,108.35,216.35,105.71,217.8ZM204.58,202a33.06,33.06,0,0,1-9.25,2.79,93.68,93.68,0,0,1-23.75,1.48,120.15,120.15,0,0,1-24.67-4.15c-2.15-.58-4.28-1.22-6.71-1.92l6.25-4.6a213.12,213.12,0,0,1,20.77-13.93,65.3,65.3,0,0,1,18.22-7.42c6.11-1.33,12.12-1.3,17.78,1.78a16.08,16.08,0,0,1,8.67,11.67C213,193.62,210,199.11,204.58,202Z"/><path class="cls-1" d="M14.72,90c4.31,1.77,8.91,2.1,13.49,2.12s9.39-.24,14.08-.58c4-.28,7.89-.85,11.84-1.25a4,4,0,0,1,1.8.13,182.79,182.79,0,0,0,19.95,5.83,94.22,94.22,0,0,0,15.45,2.42,62.31,62.31,0,0,0,14.5-.63,26.05,26.05,0,0,0,10.58-3.79,8,8,0,0,0,2.94-3.11c-.65.53-1.1.94-1.59,1.31A17.8,17.8,0,0,1,106,95.73a88.48,88.48,0,0,1-12.33-1.49,211.86,211.86,0,0,1-25.1-6.67c-.92-.29-1.82-.64-2.73-1a53.83,53.83,0,0,0,24-14.52A78.21,78.21,0,0,0,105.6,48.55,6,6,0,0,1,107,46.6c4.25-3.82,8.65-7.48,12.8-11.41,6-5.69,11.76-11.67,16.33-18.66a20.94,20.94,0,0,0,3.48-7.38c.49-2.58.2-3.61-2.71-3.49a15.59,15.59,0,0,0-8.16,3.12c-5.85,4-10.46,9.22-14.84,14.67A231,231,0,0,0,95.14,51.23a21,21,0,0,1-2.44,3.94A65.69,65.69,0,0,1,68.49,71.89c-6.53,2.5-13.25,3.7-20.25,2.47-9.85-1.73-14.83-9-15.59-17.88a39.63,39.63,0,0,1,3.72-19.66A61.46,61.46,0,0,1,51.62,16.24,65.27,65.27,0,0,1,69.93,4.3c5.72-2.45,11.6-3.66,17.8-2.12,5.51,1.36,9.38,4.51,10.66,10.24A22.4,22.4,0,0,1,97.69,24,54.06,54.06,0,0,1,75.77,53.8c-4.46,3-9.37,4.82-15,4.28a9.49,9.49,0,0,1-8.39-11.67,2,2,0,0,1,1.68-1.82c-.05.4-.1.71-.11,1-.07,3.32,1.61,4.92,4.92,3.84,2.49-.82,3.89-3.74,3.29-6.56-.47-2.2-2.14-3.62-4.23-3.27a8.27,8.27,0,0,0-3.64,1.45,8.89,8.89,0,0,0-3.2,9.59c1.66,7,6.54,9.25,12.12,9.22A20.45,20.45,0,0,0,73,57,56.13,56.13,0,0,0,96.71,31.9c2.74-5.57,4.4-11.46,3.48-17.76s-4.07-11-10.42-13.08C88.36.6,86.88.35,85.43,0H80.21a3.25,3.25,0,0,1-.6.2c-2.1.29-4.22.5-6.31.88a55.42,55.42,0,0,0-29.56,15.6A53.88,53.88,0,0,0,32.13,33.5C28.74,41.25,27,49.26,28.71,57.72c1.69,8.1,6.35,13.78,14.21,16.61a33.83,33.83,0,0,0,17.82,1.1A52.83,52.83,0,0,0,86,63.22L87.42,62l1.34-1.25a.78.78,0,0,1-.09.6A83,83,0,0,1,75.13,78.63c-3.11,2.94-6.5,5.53-10.66,6.84a3.5,3.5,0,0,1-1.78.13,240.18,240.18,0,0,0-26.84-5.42c-6-.81-11.94-1.3-17.9-.13a19.35,19.35,0,0,0-5.62,2,3.5,3.5,0,0,0-.87,5.82A10.93,10.93,0,0,0,14.72,90Zm93.15-47.84c5-9.84,10.46-19.44,17.55-28,2.45-3,5.22-5.64,8.89-7.1a9,9,0,0,1,2.84-.5c1.18-.06,1.84.72,1.41,1.81a34.09,34.09,0,0,1-2.51,5.45,83.57,83.57,0,0,1-10.26,13.28c-3.85,4.17-7.86,8.2-11.93,12.15-2,1.92-4.27,3.53-6.41,5.27-.13-.1-.26-.2-.38-.31A19.23,19.23,0,0,1,107.87,42.12ZM12.1,84.19a7,7,0,0,1,4.42-2.25c3.18-.59,6.28,0,9.31.77,8,1.88,15.94,4,23.91,6a4.33,4.33,0,0,1,.56.22c0,.1,0,.21,0,.32-4.24.33-8.48.7-12.72,1-2.67.18-5.34.36-8,.32-4.79-.06-9.61,0-14.25-1.42a8.69,8.69,0,0,1-2.77-1.39C11.18,86.64,11,85.55,12.1,84.19Z"/><path class="cls-1" d="M49.15,161.24c0-1-.38-1.12-1.16-1-.33,0-.66,0-1,0a1.5,1.5,0,0,1-1.87-1.46,12.67,12.67,0,0,1-.14-1.5c0-3.83-.06-7.67-.09-11.51,0-5.5-.1-11-.13-16.51,0-1.16.49-1.6,1.68-1.63h2.37c0-.74-.06-1.33-.09-1.93H37.3a1.54,1.54,0,0,0-.74.15c-.33.2-.76.43-.89.75-2.79,6.63-5.53,13.28-8.29,19.92-.65,1.57-1.35,3.12-2.11,4.88-.22-.42-.31-.56-.37-.72q-4.75-11.86-9.47-23.75a1.72,1.72,0,0,0-1.9-1.29c-3.84.07-7.68,0-11.52,0-.35,0-.7,0-1.06.06v1.9H2.29c2.53,0,3.37.79,3.56,3.31,0,.25,0,.5,0,.76-.07,4.19-.07,8.39-.22,12.59-.14,3.93-.39,7.87-.67,11.8-.22,3.2-1.24,4.1-4.44,4.14H0v2H13.26v-2H12.6c-2.74,0-3.77-.92-4.11-3.7a42.89,42.89,0,0,1-.42-5.18c-.05-6.66,0-13.32,0-20,0-.7.11-1.41.2-2.43.35.73.57,1.13.76,1.56,4.16,9.8,8.3,19.61,12.49,29.4a8.56,8.56,0,0,0,1.22,1.63,7.34,7.34,0,0,0,1.38-1.65C27.92,150.92,31.67,142,35.45,133c.55-1.31,1.16-2.59,1.74-3.89l.32.06c0,.37.09.74.09,1.11-.06,7.31-.1,14.63-.18,21.94,0,2.2-.12,4.41-.21,6.61,0,1-.63,1.38-1.58,1.36h-3v1.93c.34,0,.62,0,.9,0,4.82,0,9.63,0,14.45,0C48.7,162.18,49.13,162.17,49.15,161.24Z"/><path class="cls-1" d="M234.29,125.65c-.37,1.89-.34,1.94,1.35,1.95.21,0,.43,0,.65,0a2.79,2.79,0,0,1,2.6,2.21c.18,1.76.38,3.53.42,5.3.12,5.17.17,10.35.24,15.52,0,.35,0,.69-.05,1l-.4.3a3.23,3.23,0,0,0-.34-.78q-5.19-6.4-10.39-12.78c-3.21-3.92-6.44-7.82-9.65-11.73a2.58,2.58,0,0,0-2.22-1.06c-3.3.05-6.59,0-9.89,0-.31,0-.63,0-1,.07,0,.68.06,1.27.09,1.84,3.94.22,5.67,1.78,5.87,5.59.16,3.22.06,6.45,0,9.67-.1,4.41-.22,8.82-.49,13.23a9.29,9.29,0,0,1-1.13,3.54c-.52,1-1.69.54-2.6.63s-.47.74-.53,1.18.11.8.71.8c3.69,0,7.39,0,11.08,0a1,1,0,0,0,.71-.66c.19-1.08,0-1.29-1.2-1.29-2.17,0-3.19-.66-3.51-2.85a70,70,0,0,1-.62-8.2c-.15-5.17-.18-10.35-.24-15.53a5.81,5.81,0,0,1,.12-1c.23.06.33.05.36.09,1.06,1.33,2.08,2.69,3.18,4q10.39,12.24,20.82,24.44a5.31,5.31,0,0,0,1.58,1.29c1.18.59,1.85.15,1.94-1.16,0-.36,0-.72,0-1.08.07-5.22,0-10.43.23-15.64.17-4.7.57-9.38.88-14.07.16-2.43.68-2.88,3.25-2.88v-1.95Z"/><path class="cls-1" d="M137.14,58.61a14.94,14.94,0,0,1-1.36,2.3,2.68,2.68,0,0,1-.36-1.27,3.49,3.49,0,0,0-3.27-3.55,11.44,11.44,0,0,0-4,.09,40.16,40.16,0,0,0-22.93,14.36c-3.57,4.5-5.53,9.61-4.6,15.49a8.3,8.3,0,0,0,3.4,6,8.17,8.17,0,0,0,9.59-.62,50,50,0,0,0,9.88-10.6c.2-.27.43-.54.58-.72-.14,2-.42,4-.39,6,.1,6,6.39,9.41,10.93,6A62.23,62.23,0,0,0,141.52,86c2.15-2.21,4-4.71,6.06-7.16a3.61,3.61,0,0,1,0,.66,17.47,17.47,0,0,0-.19,6.87,7.59,7.59,0,0,0,6,6.77,8,8,0,0,0,6.56-1.41,38.87,38.87,0,0,0,8.15-8c1-1.24,1.93-2.52,2.69-3.52-.1,2.32-.33,4.86-.28,7.39a5.82,5.82,0,0,0,4.29,5.61,8,8,0,0,0,5.2-.23,17.73,17.73,0,0,0,5.68-3.69,47.84,47.84,0,0,0,7.11-8.44c.18-.26.39-.51.45-.58-.12,2.24-.42,4.57-.34,6.89a6.37,6.37,0,0,0,9.82,5.32A39.07,39.07,0,0,0,207,88.88c1.66-1.57,3.17-3.3,4.74-5a4.9,4.9,0,0,1-.54,1.38,50.33,50.33,0,0,1-20.69,20.1,36.38,36.38,0,0,1-14.88,4.51,104.8,104.8,0,0,1-12-.34,57.46,57.46,0,0,1-15.49-3.22,98.5,98.5,0,0,0-25.25-5.43,120.17,120.17,0,0,0-18-.29A72,72,0,0,0,91,103,56.49,56.49,0,0,0,67.3,115.91,39.84,39.84,0,0,0,60.56,124c3.25,0,6.29,0,9.33,0a1.33,1.33,0,0,0,.87-.64c4.15-6.52,10-11.06,16.88-14.34,8.92-4.23,18.43-6.08,28.22-6.53a67.75,67.75,0,0,1,23.64,2.82c9.56,3,19.19,5.56,29.24,6.37a53.8,53.8,0,0,0,17.22-1c13.77-3.38,24.64-11,32.09-23.08,4.87-7.87,9.22-16.07,13.79-24.13,1.22-2.15,2.36-4.34,3.63-6.68-2.34,0-4.5,0-6.66,0a1.49,1.49,0,0,0-1.51.9c-2.63,4.64-5.35,9.24-8,13.89C215.69,78,211.54,84,205.89,88.92a24.44,24.44,0,0,1-4.81,3.24c-1.74.9-4.5-.17-3.7-3A21,21,0,0,1,199,84.85c4.9-9,9.88-17.93,14.83-26.89.24-.42.42-.86.69-1.41-2.25,0-4.31,0-6.38,0a1.37,1.37,0,0,0-1.42.86,163.76,163.76,0,0,1-21.34,30.19c-1.72,1.9-3.53,3.79-6,4.6s-4.61-.09-4.37-3.06a10.91,10.91,0,0,1,1.63-4.75c3.39-5.74,6.77-11.5,10.18-17.23q11-18.47,21.95-36.92c1.1-1.84,2.19-3.7,3.41-5.77-2.3,0-4.34,0-6.39,0a1.54,1.54,0,0,0-1.54.9q-10.42,17.09-20.89,34.15c-.28.46-.61.9-1.07,1.56-.05-.48-.07-.65-.08-.82-.1-2.54-1.09-3.83-3.6-4.2a10.52,10.52,0,0,0-3.75.17A41.44,41.44,0,0,0,155.06,67c-2.52,2.38-4.22,5.36-6.16,8.19A76.4,76.4,0,0,1,137,88.86a21,21,0,0,1-5,3.33c-2,.94-3.73-.39-3.52-2.56a10.22,10.22,0,0,1,1.17-3.88C134.79,76.34,140,67,145.12,57.58c.17-.3.31-.61.52-1a47.87,47.87,0,0,1-5,0A2.93,2.93,0,0,0,137.14,58.61Zm16.62,23.55a63.77,63.77,0,0,1,13.63-19.62,19.06,19.06,0,0,1,8.36-5.22,14.27,14.27,0,0,1,1.47-.34c2.1-.29,3.63,1.08,3.65,4.06a20.41,20.41,0,0,1-1.52,4c-5,8.4-10.22,16.63-17.33,23.44A22.83,22.83,0,0,1,157,92c-2.29,1.23-4.3,0-4.67-2.63A13,13,0,0,1,153.76,82.16ZM134,61.68a24,24,0,0,1-4,7.95c-3.17,4.57-6.35,9.13-9.72,13.55a35,35,0,0,1-8.23,8,10,10,0,0,1-1.69.94,3.16,3.16,0,0,1-4.67-2.85c0-.36,0-.73,0-1.09a17.23,17.23,0,0,1,2.22-7.71,62.9,62.9,0,0,1,14-18.88,18.22,18.22,0,0,1,8.05-4.45C132.76,56.43,134.83,58.23,134,61.68Z"/><path class="cls-1" d="M186.17,125.14c-4.11-.4-8.16-.25-12,1.47a19.7,19.7,0,0,0-10.74,22c.9,3.87,2.49,7.38,5.66,9.82,5.82,4.48,12.47,5.25,19.5,3.82,8-1.63,14.34-9.87,14.09-18.11-.11-1.08-.16-2.16-.32-3.23A18.1,18.1,0,0,0,196.76,130,17.78,17.78,0,0,0,186.17,125.14Zm6.37,28.92c-1.49,3.29-3.86,5.64-7.59,6.27a9,9,0,0,1-6.77-1.57c-3.78-2.59-5.6-6.4-6.43-10.74-.32-1.66-.41-3.36-.61-5a20.38,20.38,0,0,1,3.05-10.8c3.39-5.24,9.45-6.84,14.61-1.9a18.85,18.85,0,0,1,5.57,11.66A22.29,22.29,0,0,1,192.54,154.06Z"/><path class="cls-1" d="M110,160.19c-.71,0-1.42,0-2.13,0v1.92a7.81,7.81,0,0,0,.78.06l26,0c2.33,0,2.34,0,2.9-2.22.69-2.74,1.36-5.48,2-8.2-1.46-.82-1.35-.75-2.19.55-1.33,2.09-2.77,4.12-4.28,6.09a3.54,3.54,0,0,1-2.8,1.43c-3,.05-5.93.11-8.89.25-1.08.05-1.42-.24-1.41-1.37,0-6.92,0-13.84,0-20.75,0-2.75,0-5.51,0-8.26,0-1.62.47-2.05,2.08-2.08h2.65v-1.9H108.28v1.9c.76,0,1.4,0,2,0,1.13,0,1.57.47,1.63,1.57.08,1.74.2,3.47.19,5.21,0,7.92-.1,15.85-.16,23.78C112,159.68,111.55,160.13,110,160.19Z"/><path class="cls-1" d="M77.23,160.18a19.88,19.88,0,0,1-2.19,0v1.93h29c.83-3.28,1.63-6.55,2.47-9.82.21-.81-.36-1-.86-1a1.14,1.14,0,0,0-.89.52,25.24,25.24,0,0,1-4.61,6.64,4.29,4.29,0,0,1-3,1.39c-2.09,0-4.19.16-6.28.21-1.22,0-2.44,0-3.94,0,0-2.84,0-5.55,0-8.25q.08-11.13.18-22.27c0-1.43.44-1.87,1.88-1.91.93,0,1.86,0,2.82,0v-2H76.7c-1.56,0-1.75.29-1.2,2h1.7c1.41,0,1.88.46,1.92,1.89.09,2.82.22,5.64.21,8.47,0,6.73-.16,13.47-.17,20.2C79.15,159.71,78.54,160,77.23,160.18Z"/><path class="cls-1" d="M56.18,160.07c-.71.09-1.45,0-2.15.16a1.08,1.08,0,0,0-.72.66c-.2,1.15,0,1.29,1.17,1.28l10.75,0H70v-1.9c-.46,0-.81-.05-1.17-.05-2.91,0-3.14-.23-3.15-3.14q0-11.81,0-23.59c0-1.19,0-2.39,0-3.58,0-1.76.53-2.24,2.27-2.29h1.73v-1.9H53.12v1.9c.94,0,1.81,0,2.67,0a1.67,1.67,0,0,1,1.82,1.83c0,1.08.14,2.17.14,3.25q-.06,12.83-.14,25.64A1.57,1.57,0,0,1,56.18,160.07Z"/><path class="cls-1" d="M143.24,160.2a7.92,7.92,0,0,1-1.09,0c-.78-.09-1.08.18-1.08,1s.4,1,1.13,1c4.2,0,8.4,0,12.6,0h3v-2h-1.6c-2.32,0-2.66-.33-2.67-2.6q0-10.38-.08-20.76c0-2.35.06-4.7.08-7.06,0-1.67.42-2.09,2.12-2.17.6,0,1.2,0,1.85,0v-1.87H140.93v1.87c1,0,1.86,0,2.75,0a1.61,1.61,0,0,1,1.75,1.66c.08,1.81.2,3.61.19,5.42,0,7.75-.12,15.49-.19,23.24C145.42,159.56,144.87,160.14,143.24,160.2Z"/></g></g></svg>